# xmcd
#
# Track frame offsets:
#	150
#	14532
#	31102
#	45895
#	59347
#	76595
#	92345
#	107527
#	121855
#	134352
#
# Disc length: 2033 seconds
# Revision: 4
# Processed by: cddbd v1.5.2PL0 Copyright (c) Steve Scherf et al.
# Submitted via: dBpowerAMP V12.0
#
DISCID=6607ef0a
DTITLE=Lisa Brokop - When You Get to Be You
DYEAR=1998
DGENRE=Country
TTITLE0=When You Get to Be You
TTITLE1=How Do I Let Go
TTITLE2=Better Off Broken
TTITLE3=What's Not to Love
TTITLE4=Cool Summer Night
TTITLE5=Rain on The River
TTITLE6=Heart Be Still
TTITLE7=Love Is
TTITLE8=Ain't Enough Roses
TTITLE9=L& of a 1 000 Dances
EXTD=
EXTT0=
EXTT1=
EXTT2=
EXTT3=
EXTT4=
EXTT5=
EXTT6=
EXTT7=
EXTT8=
EXTT9=
PLAYORDER=
